<mxfile host="65bd71144e">
    <diagram id="Z9PlXCTGom-R6hwfKpKl" name="Page-1">
        <mxGraphModel dx="749" dy="399" grid="1" gridSize="10" guides="1" tooltips="1" connect="1" arrows="1" fold="1" page="1" pageScale="1" pageWidth="827" pageHeight="1169" math="0" shadow="0">
            <root>
                <mxCell id="0"/>
                <mxCell id="1" parent="0"/>
                <mxCell id="2" value="loop" style="shape=umlFrame;whiteSpace=wrap;html=1;width=40;height=20;" vertex="1" parent="1">
                    <mxGeometry x="110" y="390" width="570" height="90" as="geometry"/>
                </mxCell>
                <mxCell id="3" style="edgeStyle=orthogonalEdgeStyle;rounded=0;orthogonalLoop=1;jettySize=auto;html=1;" edge="1" parent="1" source="4" target="7">
                    <mxGeometry relative="1" as="geometry">
                        <Array as="points">
                            <mxPoint x="190" y="240"/>
                            <mxPoint x="190" y="240"/>
                        </Array>
                    </mxGeometry>
                </mxCell>
                <mxCell id="4" value="" style="shape=umlLifeline;participant=umlActor;perimeter=lifelinePerimeter;whiteSpace=wrap;html=1;container=1;collapsible=0;recursiveResize=0;verticalAlign=top;spacingTop=36;outlineConnect=0;size=80;" vertex="1" parent="1">
                    <mxGeometry x="120" y="120" width="40" height="520" as="geometry"/>
                </mxCell>
                <mxCell id="6" style="edgeStyle=orthogonalEdgeStyle;rounded=0;orthogonalLoop=1;jettySize=auto;html=1;endArrow=classic;endFill=1;" edge="1" parent="1">
                    <mxGeometry relative="1" as="geometry">
                        <Array as="points">
                            <mxPoint x="380.13" y="320"/>
                            <mxPoint x="380.13" y="320"/>
                        </Array>
                        <mxPoint x="480.13" y="320.0000000000001" as="targetPoint"/>
                        <mxPoint x="239.63" y="320" as="sourcePoint"/>
                    </mxGeometry>
                </mxCell>
                <mxCell id="7" value="Main" style="shape=umlLifeline;participant=umlBoundary;perimeter=lifelinePerimeter;whiteSpace=wrap;html=1;container=1;collapsible=0;recursiveResize=0;verticalAlign=bottom;spacingTop=36;outlineConnect=0;size=50;labelPosition=center;verticalLabelPosition=top;align=center;" vertex="1" parent="1">
                    <mxGeometry x="210" y="132" width="60" height="510" as="geometry"/>
                </mxCell>
                <mxCell id="10" value="CompetitionList" style="shape=umlLifeline;participant=umlBoundary;perimeter=lifelinePerimeter;whiteSpace=wrap;html=1;container=1;collapsible=0;recursiveResize=0;verticalAlign=bottom;spacingTop=36;outlineConnect=0;size=50;labelPosition=center;verticalLabelPosition=top;align=center;" vertex="1" parent="1">
                    <mxGeometry x="330" y="132" width="60" height="510" as="geometry"/>
                </mxCell>
                <mxCell id="11" value="press on specific competition" style="text;html=1;strokeColor=none;fillColor=none;align=center;verticalAlign=middle;whiteSpace=wrap;rounded=0;fontSize=9;" vertex="1" parent="1">
                    <mxGeometry x="160" y="210" width="60" height="30" as="geometry"/>
                </mxCell>
                <mxCell id="12" style="edgeStyle=orthogonalEdgeStyle;rounded=0;orthogonalLoop=1;jettySize=auto;html=1;" edge="1" parent="1" target="10">
                    <mxGeometry relative="1" as="geometry">
                        <mxPoint x="240.0003448275861" y="250" as="sourcePoint"/>
                        <mxPoint x="339.69" y="250" as="targetPoint"/>
                        <Array as="points">
                            <mxPoint x="320" y="250"/>
                            <mxPoint x="320" y="250"/>
                        </Array>
                    </mxGeometry>
                </mxCell>
                <mxCell id="13" value="selectCompetition(competition)" style="text;html=1;strokeColor=none;fillColor=none;align=center;verticalAlign=middle;whiteSpace=wrap;rounded=0;fontSize=9;" vertex="1" parent="1">
                    <mxGeometry x="270" y="220" width="60" height="30" as="geometry"/>
                </mxCell>
                <mxCell id="14" style="edgeStyle=none;html=1;" edge="1" parent="1">
                    <mxGeometry relative="1" as="geometry">
                        <mxPoint x="479.7966666666666" y="499.1700000000001" as="sourcePoint"/>
                        <mxPoint x="599.6300000000001" y="499.1700000000001" as="targetPoint"/>
                        <Array as="points">
                            <mxPoint x="560.13" y="499.17"/>
                        </Array>
                    </mxGeometry>
                </mxCell>
                <mxCell id="15" style="edgeStyle=none;rounded=0;html=1;endArrow=open;endFill=0;dashed=1;" edge="1" parent="1">
                    <mxGeometry relative="1" as="geometry">
                        <Array as="points">
                            <mxPoint x="420" y="430"/>
                        </Array>
                        <mxPoint x="479.5" y="430" as="sourcePoint"/>
                        <mxPoint x="139.5" y="430" as="targetPoint"/>
                    </mxGeometry>
                </mxCell>
                <mxCell id="16" value="CompetitionInfo" style="shape=umlLifeline;participant=umlBoundary;perimeter=lifelinePerimeter;whiteSpace=wrap;html=1;container=1;collapsible=0;recursiveResize=0;verticalAlign=bottom;spacingTop=36;outlineConnect=0;size=50;labelPosition=center;verticalLabelPosition=top;align=center;" vertex="1" parent="1">
                    <mxGeometry x="450" y="132" width="60" height="510" as="geometry"/>
                </mxCell>
                <mxCell id="17" value="return" style="text;html=1;strokeColor=none;fillColor=none;align=center;verticalAlign=middle;whiteSpace=wrap;rounded=0;fontSize=9;" vertex="1" parent="1">
                    <mxGeometry x="270" y="260" width="60" height="20" as="geometry"/>
                </mxCell>
                <mxCell id="19" style="edgeStyle=orthogonalEdgeStyle;rounded=0;orthogonalLoop=1;jettySize=auto;html=1;" edge="1" parent="1">
                    <mxGeometry relative="1" as="geometry">
                        <Array as="points">
                            <mxPoint x="190.34" y="309.97"/>
                            <mxPoint x="190.34" y="309.97"/>
                        </Array>
                        <mxPoint x="140.1503448275862" y="310.0044827586206" as="sourcePoint"/>
                        <mxPoint x="239.83999999999992" y="310.0044827586206" as="targetPoint"/>
                    </mxGeometry>
                </mxCell>
                <mxCell id="20" value="press&amp;nbsp;✏️&lt;br&gt;(Edit)" style="text;html=1;strokeColor=none;fillColor=none;align=center;verticalAlign=middle;whiteSpace=wrap;rounded=0;fontSize=9;" vertex="1" parent="1">
                    <mxGeometry x="160" y="280" width="60" height="30" as="geometry"/>
                </mxCell>
                <mxCell id="21" style="edgeStyle=orthogonalEdgeStyle;rounded=0;orthogonalLoop=1;jettySize=auto;html=1;" edge="1" parent="1">
                    <mxGeometry relative="1" as="geometry">
                        <mxPoint x="360.0003448275861" y="269.6600000000001" as="sourcePoint"/>
                        <mxPoint x="479.5" y="269.6944827586208" as="targetPoint"/>
                        <Array as="points">
                            <mxPoint x="440" y="269.66"/>
                            <mxPoint x="440" y="269.66"/>
                        </Array>
                    </mxGeometry>
                </mxCell>
                <mxCell id="22" value="displayCompetiton(competition)" style="text;html=1;strokeColor=none;fillColor=none;align=center;verticalAlign=middle;whiteSpace=wrap;rounded=0;fontSize=9;" vertex="1" parent="1">
                    <mxGeometry x="360" y="250" width="120" height="20" as="geometry"/>
                </mxCell>
                <mxCell id="24" value="CompetitionManager" style="shape=umlLifeline;participant=umlControl;perimeter=lifelinePerimeter;whiteSpace=wrap;html=1;container=1;collapsible=0;recursiveResize=0;verticalAlign=bottom;spacingTop=36;outlineConnect=0;size=50;labelPosition=center;verticalLabelPosition=top;align=center;" vertex="1" parent="1">
                    <mxGeometry x="580" y="132" width="40" height="510" as="geometry"/>
                </mxCell>
                <mxCell id="25" value="editButtonClicked()" style="text;html=1;strokeColor=none;fillColor=none;align=center;verticalAlign=middle;whiteSpace=wrap;rounded=0;fontSize=9;" vertex="1" parent="1">
                    <mxGeometry x="315.13" y="300" width="90" height="20" as="geometry"/>
                </mxCell>
                <mxCell id="26" value="edit(competition)" style="text;html=1;strokeColor=none;fillColor=none;align=center;verticalAlign=middle;whiteSpace=wrap;rounded=0;fontSize=9;" vertex="1" parent="1">
                    <mxGeometry x="480.13" y="480" width="120" height="20" as="geometry"/>
                </mxCell>
                <mxCell id="28" value="displayCompetiton(competition)" style="text;html=1;strokeColor=none;fillColor=none;align=center;verticalAlign=middle;whiteSpace=wrap;rounded=0;fontSize=9;" vertex="1" parent="1">
                    <mxGeometry x="480.13" y="530" width="120" height="20" as="geometry"/>
                </mxCell>
                <mxCell id="30" value="[ ! isValid() ]" style="text;html=1;strokeColor=none;fillColor=none;align=center;verticalAlign=middle;whiteSpace=wrap;rounded=0;fontSize=9;" vertex="1" parent="1">
                    <mxGeometry x="160" y="390" width="60" height="20" as="geometry"/>
                </mxCell>
                <mxCell id="31" style="edgeStyle=none;html=1;endArrow=classic;endFill=1;rounded=0;" edge="1" parent="1">
                    <mxGeometry relative="1" as="geometry">
                        <mxPoint x="479.6666666666665" y="400.0000000000001" as="sourcePoint"/>
                        <mxPoint x="479.6666666666665" y="420.0000000000001" as="targetPoint"/>
                        <Array as="points">
                            <mxPoint x="530" y="400"/>
                            <mxPoint x="530" y="420"/>
                        </Array>
                    </mxGeometry>
                </mxCell>
                <mxCell id="32" value="displayError(msg)" style="text;html=1;strokeColor=none;fillColor=none;align=center;verticalAlign=middle;whiteSpace=wrap;rounded=0;fontSize=9;" vertex="1" parent="1">
                    <mxGeometry x="530" y="400" width="80" height="20" as="geometry"/>
                </mxCell>
                <mxCell id="33" value="return" style="text;html=1;strokeColor=none;fillColor=none;align=center;verticalAlign=middle;whiteSpace=wrap;rounded=0;fontSize=9;" vertex="1" parent="1">
                    <mxGeometry x="270" y="410" width="60" height="20" as="geometry"/>
                </mxCell>
                <mxCell id="34" style="edgeStyle=orthogonalEdgeStyle;rounded=0;orthogonalLoop=1;jettySize=auto;html=1;" edge="1" parent="1">
                    <mxGeometry relative="1" as="geometry">
                        <Array as="points">
                            <mxPoint x="190.34" y="459.97"/>
                            <mxPoint x="190.34" y="459.97"/>
                        </Array>
                        <mxPoint x="140.1503448275862" y="460.0044827586206" as="sourcePoint"/>
                        <mxPoint x="239.83999999999992" y="460.0044827586206" as="targetPoint"/>
                    </mxGeometry>
                </mxCell>
                <mxCell id="35" value="Fills Empty Filed/change errors" style="text;html=1;strokeColor=none;fillColor=none;align=center;verticalAlign=middle;whiteSpace=wrap;rounded=0;fontSize=9;" vertex="1" parent="1">
                    <mxGeometry x="150" y="440" width="80" height="20" as="geometry"/>
                </mxCell>
                <mxCell id="36" value="submitButtonClicked()" style="text;html=1;strokeColor=none;fillColor=none;align=center;verticalAlign=middle;whiteSpace=wrap;rounded=0;fontSize=9;" vertex="1" parent="1">
                    <mxGeometry x="315.07" y="450" width="90" height="20" as="geometry"/>
                </mxCell>
                <mxCell id="37" style="edgeStyle=orthogonalEdgeStyle;rounded=0;orthogonalLoop=1;jettySize=auto;html=1;endArrow=classic;endFill=1;" edge="1" parent="1">
                    <mxGeometry relative="1" as="geometry">
                        <Array as="points">
                            <mxPoint x="290.13" y="470"/>
                            <mxPoint x="290.13" y="470"/>
                        </Array>
                        <mxPoint x="239.79666666666662" y="470.0000000000001" as="sourcePoint"/>
                        <mxPoint x="480.1299999999999" y="470.0000000000001" as="targetPoint"/>
                    </mxGeometry>
                </mxCell>
                <mxCell id="38" style="edgeStyle=none;html=1;" edge="1" parent="1">
                    <mxGeometry relative="1" as="geometry">
                        <mxPoint x="599.9200000000001" y="550" as="sourcePoint"/>
                        <mxPoint x="480" y="550" as="targetPoint"/>
                        <Array as="points">
                            <mxPoint x="510.42" y="550"/>
                        </Array>
                    </mxGeometry>
                </mxCell>
                <mxCell id="39" style="edgeStyle=none;html=1;dashed=1;endArrow=open;endFill=0;" edge="1" parent="1">
                    <mxGeometry relative="1" as="geometry">
                        <mxPoint x="480" y="561" as="sourcePoint"/>
                        <mxPoint x="139.53666666666663" y="561" as="targetPoint"/>
                        <Array as="points">
                            <mxPoint x="460.5" y="561"/>
                        </Array>
                    </mxGeometry>
                </mxCell>
                <mxCell id="40" value="return" style="text;html=1;strokeColor=none;fillColor=none;align=center;verticalAlign=middle;whiteSpace=wrap;rounded=0;fontSize=9;" vertex="1" parent="1">
                    <mxGeometry x="289.87" y="541" width="60" height="20" as="geometry"/>
                </mxCell>
                <mxCell id="41" style="edgeStyle=none;html=1;" edge="1" parent="1">
                    <mxGeometry relative="1" as="geometry">
                        <mxPoint x="599.9200000000001" y="519" as="sourcePoint"/>
                        <mxPoint x="480" y="519" as="targetPoint"/>
                        <Array as="points">
                            <mxPoint x="510.4200000000001" y="519"/>
                        </Array>
                    </mxGeometry>
                </mxCell>
                <mxCell id="42" value="displaySuccess(msg)" style="text;html=1;strokeColor=none;fillColor=none;align=center;verticalAlign=middle;whiteSpace=wrap;rounded=0;fontSize=9;" vertex="1" parent="1">
                    <mxGeometry x="500.07" y="500" width="80.13" height="20" as="geometry"/>
                </mxCell>
                <mxCell id="43" style="edgeStyle=none;html=1;dashed=1;endArrow=open;endFill=0;" edge="1" parent="1">
                    <mxGeometry relative="1" as="geometry">
                        <mxPoint x="480" y="530" as="sourcePoint"/>
                        <mxPoint x="139.53666666666663" y="530" as="targetPoint"/>
                        <Array as="points">
                            <mxPoint x="460.5" y="530"/>
                        </Array>
                    </mxGeometry>
                </mxCell>
                <mxCell id="44" value="return" style="text;html=1;strokeColor=none;fillColor=none;align=center;verticalAlign=middle;whiteSpace=wrap;rounded=0;fontSize=9;" vertex="1" parent="1">
                    <mxGeometry x="289.87" y="510" width="60" height="20" as="geometry"/>
                </mxCell>
                <mxCell id="46" style="edgeStyle=none;rounded=0;html=1;endArrow=open;endFill=0;dashed=1;" edge="1" parent="1">
                    <mxGeometry relative="1" as="geometry">
                        <Array as="points">
                            <mxPoint x="420.63" y="280"/>
                        </Array>
                        <mxPoint x="480.13" y="280" as="sourcePoint"/>
                        <mxPoint x="140.13" y="280" as="targetPoint"/>
                    </mxGeometry>
                </mxCell>
                <mxCell id="47" style="edgeStyle=none;rounded=0;html=1;endArrow=open;endFill=0;dashed=1;" edge="1" parent="1">
                    <mxGeometry relative="1" as="geometry">
                        <Array as="points">
                            <mxPoint x="420.63" y="340"/>
                        </Array>
                        <mxPoint x="480.1300000000001" y="340" as="sourcePoint"/>
                        <mxPoint x="140.13" y="340" as="targetPoint"/>
                    </mxGeometry>
                </mxCell>
                <mxCell id="48" value="return" style="text;html=1;strokeColor=none;fillColor=none;align=center;verticalAlign=middle;whiteSpace=wrap;rounded=0;fontSize=9;" vertex="1" parent="1">
                    <mxGeometry x="270" y="320" width="60" height="20" as="geometry"/>
                </mxCell>
                <mxCell id="49" style="edgeStyle=orthogonalEdgeStyle;rounded=0;orthogonalLoop=1;jettySize=auto;html=1;" edge="1" parent="1">
                    <mxGeometry relative="1" as="geometry">
                        <Array as="points">
                            <mxPoint x="190.34" y="369.97"/>
                            <mxPoint x="190.34" y="369.97"/>
                        </Array>
                        <mxPoint x="140.1503448275862" y="370.0044827586206" as="sourcePoint"/>
                        <mxPoint x="239.83999999999992" y="370.0044827586206" as="targetPoint"/>
                    </mxGeometry>
                </mxCell>
                <mxCell id="50" value="edit competition&lt;br&gt;and press submit" style="text;html=1;strokeColor=none;fillColor=none;align=center;verticalAlign=middle;whiteSpace=wrap;rounded=0;fontSize=9;" vertex="1" parent="1">
                    <mxGeometry x="150" y="340" width="80" height="30" as="geometry"/>
                </mxCell>
                <mxCell id="51" style="edgeStyle=orthogonalEdgeStyle;rounded=0;orthogonalLoop=1;jettySize=auto;html=1;endArrow=classic;endFill=1;" edge="1" parent="1">
                    <mxGeometry relative="1" as="geometry">
                        <Array as="points">
                            <mxPoint x="290.13" y="380"/>
                            <mxPoint x="290.13" y="380"/>
                        </Array>
                        <mxPoint x="239.79666666666662" y="380.0000000000001" as="sourcePoint"/>
                        <mxPoint x="480.1299999999999" y="380.0000000000001" as="targetPoint"/>
                    </mxGeometry>
                </mxCell>
                <mxCell id="52" value="submitButtonClicked()" style="text;html=1;strokeColor=none;fillColor=none;align=center;verticalAlign=middle;whiteSpace=wrap;rounded=0;fontSize=9;" vertex="1" parent="1">
                    <mxGeometry x="315.07" y="360" width="90" height="20" as="geometry"/>
                </mxCell>
            </root>
        </mxGraphModel>
    </diagram>
</mxfile>